<mxfile host="app.diagrams.net" modified="2024-06-30T19:58:56.665Z" agent="Mozilla/5.0 (Windows NT 10.0; Win64; x64) AppleWebKit/537.36 (KHTML, like Gecko) Chrome/126.0.0.0 Safari/537.36 Edg/126.0.0.0" etag="CZoqx5Ws7qXlRwNihNWi" version="24.6.4" type="device">
  <diagram name="PÃ¡gina-1" id="E7YEOR2yDviAnGY--7Wx">
    <mxGraphModel dx="2791" dy="2245" grid="1" gridSize="10" guides="1" tooltips="1" connect="1" arrows="1" fold="1" page="1" pageScale="1" pageWidth="827" pageHeight="1169" math="0" shadow="0">
      <root>
        <mxCell id="0" />
        <mxCell id="1" parent="0" />
        <mxCell id="0pjyvUPKSsf58AWkcdwp-80" value="" style="rounded=0;whiteSpace=wrap;html=1;glass=0;fillColor=default;" vertex="1" parent="1">
          <mxGeometry x="-370" y="250" width="650" height="500" as="geometry" />
        </mxCell>
        <mxCell id="0pjyvUPKSsf58AWkcdwp-71" value="" style="rounded=0;whiteSpace=wrap;html=1;glass=0;fillColor=default;" vertex="1" parent="1">
          <mxGeometry x="-370" y="-320" width="650" height="500" as="geometry" />
        </mxCell>
        <mxCell id="0pjyvUPKSsf58AWkcdwp-69" value="" style="rounded=0;whiteSpace=wrap;html=1;glass=0;fillColor=default;" vertex="1" parent="1">
          <mxGeometry x="-370" y="-890" width="650" height="500" as="geometry" />
        </mxCell>
        <mxCell id="0pjyvUPKSsf58AWkcdwp-27" value="ExistentNode" style="swimlane;fontStyle=0;childLayout=stackLayout;horizontal=1;startSize=30;horizontalStack=0;resizeParent=1;resizeParentMax=0;resizeLast=0;collapsible=1;marginBottom=0;whiteSpace=wrap;html=1;gradientDirection=east;fillColor=#b1ddf0;strokeColor=#10739e;shadow=1;swimlaneFillColor=default;" vertex="1" parent="1">
          <mxGeometry y="60" width="140" height="90" as="geometry" />
        </mxCell>
        <mxCell id="0pjyvUPKSsf58AWkcdwp-28" value="value" style="text;strokeColor=none;fillColor=none;align=left;verticalAlign=middle;spacingLeft=4;spacingRight=4;overflow=hidden;points=[[0,0.5],[1,0.5]];portConstraint=eastwest;rotatable=0;whiteSpace=wrap;html=1;" vertex="1" parent="0pjyvUPKSsf58AWkcdwp-27">
          <mxGeometry y="30" width="140" height="30" as="geometry" />
        </mxCell>
        <mxCell id="0pjyvUPKSsf58AWkcdwp-30" value="nextP&lt;span style=&quot;background-color: initial;&quot;&gt;ointer&lt;/span&gt;" style="text;strokeColor=none;fillColor=none;align=left;verticalAlign=middle;spacingLeft=4;spacingRight=4;overflow=hidden;points=[[0,0.5],[1,0.5]];portConstraint=eastwest;rotatable=0;whiteSpace=wrap;html=1;" vertex="1" parent="0pjyvUPKSsf58AWkcdwp-27">
          <mxGeometry y="60" width="140" height="30" as="geometry" />
        </mxCell>
        <mxCell id="0pjyvUPKSsf58AWkcdwp-31" value="ListNode" style="swimlane;fontStyle=0;childLayout=stackLayout;horizontal=1;startSize=30;horizontalStack=0;resizeParent=1;resizeParentMax=0;resizeLast=0;collapsible=1;marginBottom=0;whiteSpace=wrap;html=1;gradientDirection=east;fillColor=#b1ddf0;strokeColor=#10739e;shadow=1;swimlaneFillColor=default;" vertex="1" parent="1">
          <mxGeometry x="-280" width="140" height="90" as="geometry" />
        </mxCell>
        <mxCell id="0pjyvUPKSsf58AWkcdwp-32" value="fir&lt;span style=&quot;background-color: initial;&quot;&gt;stPointer&lt;/span&gt;" style="text;strokeColor=none;fillColor=none;align=left;verticalAlign=middle;spacingLeft=4;spacingRight=4;overflow=hidden;points=[[0,0.5],[1,0.5]];portConstraint=eastwest;rotatable=0;whiteSpace=wrap;html=1;" vertex="1" parent="0pjyvUPKSsf58AWkcdwp-31">
          <mxGeometry y="30" width="140" height="30" as="geometry" />
        </mxCell>
        <mxCell id="0pjyvUPKSsf58AWkcdwp-33" value="lastP&lt;span style=&quot;background-color: initial;&quot;&gt;ointer&lt;/span&gt;" style="text;strokeColor=none;fillColor=none;align=left;verticalAlign=middle;spacingLeft=4;spacingRight=4;overflow=hidden;points=[[0,0.5],[1,0.5]];portConstraint=eastwest;rotatable=0;whiteSpace=wrap;html=1;" vertex="1" parent="0pjyvUPKSsf58AWkcdwp-31">
          <mxGeometry y="60" width="140" height="30" as="geometry" />
        </mxCell>
        <mxCell id="0pjyvUPKSsf58AWkcdwp-35" style="edgeStyle=orthogonalEdgeStyle;rounded=0;orthogonalLoop=1;jettySize=auto;html=1;entryX=0.5;entryY=1.033;entryDx=0;entryDy=0;entryPerimeter=0;" edge="1" parent="1" source="0pjyvUPKSsf58AWkcdwp-33" target="0pjyvUPKSsf58AWkcdwp-30">
          <mxGeometry relative="1" as="geometry" />
        </mxCell>
        <mxCell id="0pjyvUPKSsf58AWkcdwp-39" value="&lt;span style=&quot;color: rgba(0, 0, 0, 0); font-family: monospace; font-size: 0px; text-align: start; background-color: rgb(251, 251, 251);&quot;&gt;%3CmxGraphModel%3E%3Croot%3E%3CmxCell%20id%3D%220%22%2F%3E%3CmxCell%20id%3D%221%22%20parent%3D%220%22%2F%3E%3CmxCell%20id%3D%222%22%20value%3D%22AddToTopo%26lt%3Bdiv%26gt%3B%26lt%3Bbr%26gt%3B%26lt%3B%2Fdiv%26gt%3B%22%20style%3D%22edgeLabel%3Bhtml%3D1%3Balign%3Dcenter%3BverticalAlign%3Dmiddle%3Bresizable%3D0%3Bpoints%3D%5B%5D%3B%22%20vertex%3D%221%22%20connectable%3D%220%22%20parent%3D%221%22%3E%3CmxGeometry%20x%3D%22-58%22%20y%3D%2277%22%20as%3D%22geometry%22%2F%3E%3C%2FmxCell%3E%3C%2Froot%3E%3C%2FmxGraphModel%3E&lt;/span&gt;" style="edgeLabel;html=1;align=center;verticalAlign=middle;resizable=0;points=[];" vertex="1" connectable="0" parent="0pjyvUPKSsf58AWkcdwp-35">
          <mxGeometry x="-0.3859" y="1" relative="1" as="geometry">
            <mxPoint as="offset" />
          </mxGeometry>
        </mxCell>
        <mxCell id="0pjyvUPKSsf58AWkcdwp-40" value="&lt;div&gt;&lt;br&gt;&lt;/div&gt;" style="edgeLabel;html=1;align=center;verticalAlign=middle;resizable=0;points=[];" vertex="1" connectable="0" parent="0pjyvUPKSsf58AWkcdwp-35">
          <mxGeometry x="-0.4646" y="-1" relative="1" as="geometry">
            <mxPoint as="offset" />
          </mxGeometry>
        </mxCell>
        <mxCell id="0pjyvUPKSsf58AWkcdwp-37" value="nullPtr" style="ellipse;whiteSpace=wrap;html=1;aspect=fixed;gradientDirection=east;fillColor=#b1ddf0;strokeColor=#10739e;shadow=1;swimlaneFillColor=default;" vertex="1" parent="1">
          <mxGeometry x="170" y="-230" width="80" height="80" as="geometry" />
        </mxCell>
        <mxCell id="0pjyvUPKSsf58AWkcdwp-36" style="edgeStyle=orthogonalEdgeStyle;rounded=0;orthogonalLoop=1;jettySize=auto;html=1;entryX=0.5;entryY=1;entryDx=0;entryDy=0;" edge="1" parent="1" source="0pjyvUPKSsf58AWkcdwp-30" target="0pjyvUPKSsf58AWkcdwp-37">
          <mxGeometry relative="1" as="geometry">
            <mxPoint x="220" y="30" as="targetPoint" />
          </mxGeometry>
        </mxCell>
        <mxCell id="0pjyvUPKSsf58AWkcdwp-41" value="newNode" style="swimlane;fontStyle=0;childLayout=stackLayout;horizontal=1;startSize=30;horizontalStack=0;resizeParent=1;resizeParentMax=0;resizeLast=0;collapsible=1;marginBottom=0;whiteSpace=wrap;html=1;gradientDirection=east;fillColor=#b1ddf0;strokeColor=#10739e;shadow=1;swimlaneFillColor=default;" vertex="1" parent="1">
          <mxGeometry x="-50" y="-160" width="140" height="90" as="geometry" />
        </mxCell>
        <mxCell id="0pjyvUPKSsf58AWkcdwp-42" value="value" style="text;strokeColor=none;fillColor=none;align=left;verticalAlign=middle;spacingLeft=4;spacingRight=4;overflow=hidden;points=[[0,0.5],[1,0.5]];portConstraint=eastwest;rotatable=0;whiteSpace=wrap;html=1;" vertex="1" parent="0pjyvUPKSsf58AWkcdwp-41">
          <mxGeometry y="30" width="140" height="30" as="geometry" />
        </mxCell>
        <mxCell id="0pjyvUPKSsf58AWkcdwp-43" value="nextP&lt;span style=&quot;background-color: initial;&quot;&gt;ointer&lt;/span&gt;" style="text;strokeColor=none;fillColor=none;align=left;verticalAlign=middle;spacingLeft=4;spacingRight=4;overflow=hidden;points=[[0,0.5],[1,0.5]];portConstraint=eastwest;rotatable=0;whiteSpace=wrap;html=1;" vertex="1" parent="0pjyvUPKSsf58AWkcdwp-41">
          <mxGeometry y="60" width="140" height="30" as="geometry" />
        </mxCell>
        <mxCell id="0pjyvUPKSsf58AWkcdwp-45" style="edgeStyle=orthogonalEdgeStyle;rounded=0;orthogonalLoop=1;jettySize=auto;html=1;entryX=-0.007;entryY=0.2;entryDx=0;entryDy=0;entryPerimeter=0;" edge="1" parent="1" source="0pjyvUPKSsf58AWkcdwp-32" target="0pjyvUPKSsf58AWkcdwp-42">
          <mxGeometry relative="1" as="geometry" />
        </mxCell>
        <mxCell id="0pjyvUPKSsf58AWkcdwp-46" style="edgeStyle=orthogonalEdgeStyle;rounded=0;orthogonalLoop=1;jettySize=auto;html=1;" edge="1" parent="1" source="0pjyvUPKSsf58AWkcdwp-43" target="0pjyvUPKSsf58AWkcdwp-27">
          <mxGeometry relative="1" as="geometry" />
        </mxCell>
        <mxCell id="0pjyvUPKSsf58AWkcdwp-48" value="ListNode" style="swimlane;fontStyle=0;childLayout=stackLayout;horizontal=1;startSize=30;horizontalStack=0;resizeParent=1;resizeParentMax=0;resizeLast=0;collapsible=1;marginBottom=0;whiteSpace=wrap;html=1;fillColor=#b1ddf0;strokeColor=#10739e;swimlaneFillColor=default;" vertex="1" parent="1">
          <mxGeometry x="-310" y="400" width="140" height="90" as="geometry" />
        </mxCell>
        <mxCell id="0pjyvUPKSsf58AWkcdwp-49" value="fir&lt;span style=&quot;background-color: initial;&quot;&gt;stPointer&lt;/span&gt;" style="text;strokeColor=none;fillColor=none;align=left;verticalAlign=middle;spacingLeft=4;spacingRight=4;overflow=hidden;points=[[0,0.5],[1,0.5]];portConstraint=eastwest;rotatable=0;whiteSpace=wrap;html=1;" vertex="1" parent="0pjyvUPKSsf58AWkcdwp-48">
          <mxGeometry y="30" width="140" height="30" as="geometry" />
        </mxCell>
        <mxCell id="0pjyvUPKSsf58AWkcdwp-50" value="lastP&lt;span style=&quot;background-color: initial;&quot;&gt;ointer&lt;/span&gt;" style="text;strokeColor=none;fillColor=none;align=left;verticalAlign=middle;spacingLeft=4;spacingRight=4;overflow=hidden;points=[[0,0.5],[1,0.5]];portConstraint=eastwest;rotatable=0;whiteSpace=wrap;html=1;" vertex="1" parent="0pjyvUPKSsf58AWkcdwp-48">
          <mxGeometry y="60" width="140" height="30" as="geometry" />
        </mxCell>
        <mxCell id="0pjyvUPKSsf58AWkcdwp-52" value="ExistentNode" style="swimlane;fontStyle=0;childLayout=stackLayout;horizontal=1;startSize=30;horizontalStack=0;resizeParent=1;resizeParentMax=0;resizeLast=0;collapsible=1;marginBottom=0;whiteSpace=wrap;html=1;fillColor=#b1ddf0;strokeColor=#10739e;swimlaneFillColor=default;" vertex="1" parent="1">
          <mxGeometry x="-10" y="310" width="140" height="90" as="geometry" />
        </mxCell>
        <mxCell id="0pjyvUPKSsf58AWkcdwp-53" value="value" style="text;strokeColor=none;fillColor=none;align=left;verticalAlign=middle;spacingLeft=4;spacingRight=4;overflow=hidden;points=[[0,0.5],[1,0.5]];portConstraint=eastwest;rotatable=0;whiteSpace=wrap;html=1;" vertex="1" parent="0pjyvUPKSsf58AWkcdwp-52">
          <mxGeometry y="30" width="140" height="30" as="geometry" />
        </mxCell>
        <mxCell id="0pjyvUPKSsf58AWkcdwp-54" value="nextP&lt;span style=&quot;background-color: initial;&quot;&gt;ointer&lt;/span&gt;" style="text;strokeColor=none;fillColor=none;align=left;verticalAlign=middle;spacingLeft=4;spacingRight=4;overflow=hidden;points=[[0,0.5],[1,0.5]];portConstraint=eastwest;rotatable=0;whiteSpace=wrap;html=1;" vertex="1" parent="0pjyvUPKSsf58AWkcdwp-52">
          <mxGeometry y="60" width="140" height="30" as="geometry" />
        </mxCell>
        <mxCell id="0pjyvUPKSsf58AWkcdwp-55" value="ListNode" style="swimlane;fontStyle=0;childLayout=stackLayout;horizontal=1;startSize=30;horizontalStack=0;resizeParent=1;resizeParentMax=0;resizeLast=0;collapsible=1;marginBottom=0;whiteSpace=wrap;html=1;labelBackgroundColor=none;fillColor=#b1ddf0;strokeColor=#10739e;textShadow=0;swimlaneFillColor=default;" vertex="1" parent="1">
          <mxGeometry x="-290" y="-590" width="140" height="90" as="geometry" />
        </mxCell>
        <mxCell id="0pjyvUPKSsf58AWkcdwp-56" value="fir&lt;span style=&quot;&quot;&gt;stPointer&lt;/span&gt;" style="text;strokeColor=none;fillColor=none;align=left;verticalAlign=middle;spacingLeft=4;spacingRight=4;overflow=hidden;points=[[0,0.5],[1,0.5]];portConstraint=eastwest;rotatable=0;whiteSpace=wrap;html=1;labelBackgroundColor=none;textShadow=0;" vertex="1" parent="0pjyvUPKSsf58AWkcdwp-55">
          <mxGeometry y="30" width="140" height="30" as="geometry" />
        </mxCell>
        <mxCell id="0pjyvUPKSsf58AWkcdwp-57" value="lastP&lt;span style=&quot;&quot;&gt;ointer&lt;/span&gt;" style="text;strokeColor=none;fillColor=none;align=left;verticalAlign=middle;spacingLeft=4;spacingRight=4;overflow=hidden;points=[[0,0.5],[1,0.5]];portConstraint=eastwest;rotatable=0;whiteSpace=wrap;html=1;labelBackgroundColor=none;textShadow=0;" vertex="1" parent="0pjyvUPKSsf58AWkcdwp-55">
          <mxGeometry y="60" width="140" height="30" as="geometry" />
        </mxCell>
        <mxCell id="0pjyvUPKSsf58AWkcdwp-59" value="Node" style="swimlane;fontStyle=0;childLayout=stackLayout;horizontal=1;startSize=30;horizontalStack=0;resizeParent=1;resizeParentMax=0;resizeLast=0;collapsible=1;marginBottom=0;whiteSpace=wrap;html=1;labelBackgroundColor=none;fillColor=#b1ddf0;strokeColor=#10739e;textShadow=0;swimlaneFillColor=default;" vertex="1" parent="1">
          <mxGeometry x="-30" y="-590" width="140" height="90" as="geometry" />
        </mxCell>
        <mxCell id="0pjyvUPKSsf58AWkcdwp-60" value="value" style="text;strokeColor=none;fillColor=none;align=left;verticalAlign=middle;spacingLeft=4;spacingRight=4;overflow=hidden;points=[[0,0.5],[1,0.5]];portConstraint=eastwest;rotatable=0;whiteSpace=wrap;html=1;labelBackgroundColor=none;textShadow=0;" vertex="1" parent="0pjyvUPKSsf58AWkcdwp-59">
          <mxGeometry y="30" width="140" height="30" as="geometry" />
        </mxCell>
        <mxCell id="0pjyvUPKSsf58AWkcdwp-64" style="edgeStyle=orthogonalEdgeStyle;rounded=0;orthogonalLoop=1;jettySize=auto;html=1;labelBackgroundColor=none;" edge="1" parent="0pjyvUPKSsf58AWkcdwp-59" source="0pjyvUPKSsf58AWkcdwp-61">
          <mxGeometry relative="1" as="geometry">
            <mxPoint x="210" y="-120" as="targetPoint" />
          </mxGeometry>
        </mxCell>
        <mxCell id="0pjyvUPKSsf58AWkcdwp-61" value="nextP&lt;span style=&quot;&quot;&gt;ointer&lt;/span&gt;" style="text;strokeColor=none;fillColor=none;align=left;verticalAlign=middle;spacingLeft=4;spacingRight=4;overflow=hidden;points=[[0,0.5],[1,0.5]];portConstraint=eastwest;rotatable=0;whiteSpace=wrap;html=1;labelBackgroundColor=none;textShadow=0;" vertex="1" parent="0pjyvUPKSsf58AWkcdwp-59">
          <mxGeometry y="60" width="140" height="30" as="geometry" />
        </mxCell>
        <mxCell id="0pjyvUPKSsf58AWkcdwp-62" style="edgeStyle=orthogonalEdgeStyle;rounded=0;orthogonalLoop=1;jettySize=auto;html=1;entryX=0.5;entryY=0;entryDx=0;entryDy=0;labelBackgroundColor=none;textShadow=0;" edge="1" parent="1" source="0pjyvUPKSsf58AWkcdwp-56" target="0pjyvUPKSsf58AWkcdwp-59">
          <mxGeometry relative="1" as="geometry" />
        </mxCell>
        <mxCell id="0pjyvUPKSsf58AWkcdwp-63" style="edgeStyle=orthogonalEdgeStyle;rounded=0;orthogonalLoop=1;jettySize=auto;html=1;entryX=0.321;entryY=0.967;entryDx=0;entryDy=0;entryPerimeter=0;labelBackgroundColor=none;textShadow=0;" edge="1" parent="1" source="0pjyvUPKSsf58AWkcdwp-57" target="0pjyvUPKSsf58AWkcdwp-61">
          <mxGeometry relative="1" as="geometry" />
        </mxCell>
        <mxCell id="0pjyvUPKSsf58AWkcdwp-67" value="&lt;span style=&quot;color: rgba(0, 0, 0, 0); font-family: monospace; font-size: 0px; text-align: start;&quot;&gt;%3CmxGraphModel%3E%3Croot%3E%3CmxCell%20id%3D%220%22%2F%3E%3CmxCell%20id%3D%221%22%20parent%3D%220%22%2F%3E%3CmxCell%20id%3D%222%22%20value%3D%22Topo%2FResto%22%20style%3D%22edgeLabel%3Bhtml%3D1%3Balign%3Dcenter%3BverticalAlign%3Dmiddle%3Bresizable%3D0%3Bpoints%3D%5B%5D%3B%22%20vertex%3D%221%22%20connectable%3D%220%22%20parent%3D%221%22%3E%3CmxGeometry%20x%3D%22-82%22%20y%3D%22-360%22%20as%3D%22geometry%22%2F%3E%3C%2FmxCell%3E%3C%2Froot%3E%3C%2FmxGraphModel%3E&lt;/span&gt;" style="edgeLabel;html=1;align=center;verticalAlign=middle;resizable=0;points=[];labelBackgroundColor=none;textShadow=0;" vertex="1" connectable="0" parent="0pjyvUPKSsf58AWkcdwp-63">
          <mxGeometry x="-0.2757" y="2" relative="1" as="geometry">
            <mxPoint as="offset" />
          </mxGeometry>
        </mxCell>
        <mxCell id="0pjyvUPKSsf58AWkcdwp-65" value="nullPtr" style="ellipse;whiteSpace=wrap;html=1;aspect=fixed;fillColor=#b1ddf0;strokeColor=#10739e;labelBackgroundColor=none;" vertex="1" parent="1">
          <mxGeometry x="140" y="-790" width="80" height="80" as="geometry" />
        </mxCell>
        <mxCell id="0pjyvUPKSsf58AWkcdwp-70" value="First Call Add Resto/Topo" style="text;html=1;align=center;verticalAlign=middle;whiteSpace=wrap;rounded=0;" vertex="1" parent="1">
          <mxGeometry x="-350" y="-880" width="310" height="140" as="geometry" />
        </mxCell>
        <mxCell id="0pjyvUPKSsf58AWkcdwp-72" value="SecondCall Add Topo" style="text;html=1;align=center;verticalAlign=middle;whiteSpace=wrap;rounded=0;" vertex="1" parent="1">
          <mxGeometry x="-360" y="-310" width="310" height="140" as="geometry" />
        </mxCell>
        <mxCell id="0pjyvUPKSsf58AWkcdwp-77" value="N&lt;span style=&quot;background-color: initial;&quot;&gt;ewNode&lt;/span&gt;" style="swimlane;fontStyle=0;childLayout=stackLayout;horizontal=1;startSize=30;horizontalStack=0;resizeParent=1;resizeParentMax=0;resizeLast=0;collapsible=1;marginBottom=0;whiteSpace=wrap;html=1;fillColor=#b1ddf0;strokeColor=#10739e;swimlaneFillColor=default;" vertex="1" parent="1">
          <mxGeometry x="-10" y="495" width="140" height="90" as="geometry" />
        </mxCell>
        <mxCell id="0pjyvUPKSsf58AWkcdwp-78" value="value" style="text;strokeColor=none;fillColor=none;align=left;verticalAlign=middle;spacingLeft=4;spacingRight=4;overflow=hidden;points=[[0,0.5],[1,0.5]];portConstraint=eastwest;rotatable=0;whiteSpace=wrap;html=1;" vertex="1" parent="0pjyvUPKSsf58AWkcdwp-77">
          <mxGeometry y="30" width="140" height="30" as="geometry" />
        </mxCell>
        <mxCell id="0pjyvUPKSsf58AWkcdwp-79" value="nextP&lt;span style=&quot;background-color: initial;&quot;&gt;ointer&lt;/span&gt;" style="text;strokeColor=none;fillColor=none;align=left;verticalAlign=middle;spacingLeft=4;spacingRight=4;overflow=hidden;points=[[0,0.5],[1,0.5]];portConstraint=eastwest;rotatable=0;whiteSpace=wrap;html=1;" vertex="1" parent="0pjyvUPKSsf58AWkcdwp-77">
          <mxGeometry y="60" width="140" height="30" as="geometry" />
        </mxCell>
        <mxCell id="0pjyvUPKSsf58AWkcdwp-51" style="edgeStyle=orthogonalEdgeStyle;rounded=0;orthogonalLoop=1;jettySize=auto;html=1;entryX=0.5;entryY=0;entryDx=0;entryDy=0;" edge="1" parent="1" source="0pjyvUPKSsf58AWkcdwp-49" target="0pjyvUPKSsf58AWkcdwp-52">
          <mxGeometry relative="1" as="geometry">
            <mxPoint x="-90" y="350" as="targetPoint" />
          </mxGeometry>
        </mxCell>
        <mxCell id="0pjyvUPKSsf58AWkcdwp-81" value="SecondCall Add Resto&lt;div&gt;&lt;br&gt;&lt;/div&gt;" style="text;html=1;align=center;verticalAlign=middle;whiteSpace=wrap;rounded=0;" vertex="1" parent="1">
          <mxGeometry x="-380" y="250" width="310" height="140" as="geometry" />
        </mxCell>
        <mxCell id="0pjyvUPKSsf58AWkcdwp-83" value="nullPtr" style="ellipse;whiteSpace=wrap;html=1;aspect=fixed;gradientDirection=east;fillColor=#b1ddf0;strokeColor=#10739e;shadow=1;swimlaneFillColor=default;" vertex="1" parent="1">
          <mxGeometry x="180" y="300" width="80" height="80" as="geometry" />
        </mxCell>
        <mxCell id="0pjyvUPKSsf58AWkcdwp-84" style="edgeStyle=orthogonalEdgeStyle;rounded=0;orthogonalLoop=1;jettySize=auto;html=1;" edge="1" parent="1" source="0pjyvUPKSsf58AWkcdwp-79" target="0pjyvUPKSsf58AWkcdwp-83">
          <mxGeometry relative="1" as="geometry" />
        </mxCell>
        <mxCell id="0pjyvUPKSsf58AWkcdwp-86" style="edgeStyle=orthogonalEdgeStyle;rounded=0;orthogonalLoop=1;jettySize=auto;html=1;entryX=1;entryY=0;entryDx=0;entryDy=0;" edge="1" parent="1" source="0pjyvUPKSsf58AWkcdwp-54" target="0pjyvUPKSsf58AWkcdwp-77">
          <mxGeometry relative="1" as="geometry" />
        </mxCell>
        <mxCell id="0pjyvUPKSsf58AWkcdwp-87" style="edgeStyle=orthogonalEdgeStyle;rounded=0;orthogonalLoop=1;jettySize=auto;html=1;entryX=0;entryY=0.5;entryDx=0;entryDy=0;" edge="1" parent="1" source="0pjyvUPKSsf58AWkcdwp-50" target="0pjyvUPKSsf58AWkcdwp-79">
          <mxGeometry relative="1" as="geometry" />
        </mxCell>
      </root>
    </mxGraphModel>
  </diagram>
</mxfile>
